PathFileType	4	(X/Y/Z)	Patient4_TMGait_0pt3_03_left_21.trc.trc
DataRate	CameraRate	NumFrames	NumMarkers	Units	OrigDataRate	OrigDataStartFrame	OrigNumFrames
53.846153846154	53.846153846154	6	33	mm	53.846153846154	106	       141
Frame#	Time	Sacral			L.Shoulder			Chest			R.Shoulder			Neck			R.ASIS			L.ASIS			R.Thigh.Superior			R.Thigh.Lateral			R.Thigh.Inferior			R.Patella			L.Thigh.Superior			L.Thigh.Lateral			L.Thigh.Inferior			L.Patella			L.Shank.Superior			L.Shank.Lateral			L.Shank.Inferior			R.Shank.Superior			R.Shank.Lateral			R.Shank.Inferior			R.Heel			R.Midfoot.Superior			R.Midfoot.Lateral			R.Toe			L.Heel			L.Midfoot.Lateral			L.Midfoot.Superior			L.Toe			L.Elbow			L.Wrist			R.Elbow			R.Wrist			
		X1	Y1	Z1	X2	Y2	Z2	X3	Y3	Z3	X4	Y4	Z4	X5	Y5	Z5	X6	Y6	Z6	X7	Y7	Z7	X8	Y8	Z8	X9	Y9	Z9	X10	Y10	Z10	X11	Y11	Z11	X12	Y12	Z12	X13	Y13	Z13	X14	Y14	Z14	X15	Y15	Z15	X16	Y16	Z16	X17	Y17	Z17	X18	Y18	Z18	X19	Y19	Z19	X20	Y20	Z20	X21	Y21	Z21	X22	Y22	Z22	X23	Y23	Z23	X24	Y24	Z24	X25	Y25	Z25	X26	Y26	Z26	X27	Y27	Z27	X28	Y28	Z28	X29	Y29	Z29	X30	Y30	Z30	X31	Y31	Z31	X32	Y32	Z32	X33	Y33	Z33	

106	38.420000000000	724.232778706562	985.268459986255	569.349141062833	904.108430069371	1408.146778614609	374.428119317315	1009.268478951186	1342.886818120594	535.389143232852	931.261249445208	1419.221640040538	710.201600505556	885.616227649702	1474.779058445083	530.683155827715	959.466129800894	923.639685038101	680.303601790461	934.360967815308	943.649727403446	407.902431784319	1014.042664179928	727.528773549026	637.123981901679	944.538585581553	608.928798110913	692.436932534637	1021.136956312036	564.973698061290	605.571802632267	1026.761745147283	467.620949376724	608.172509667316	1017.183423324453	754.928711582527	439.248914621175	972.675237396175	630.054167501187	358.766871455475	1070.239362058146	563.617326672266	427.822142966991	1077.727764412721	471.950892341993	415.072506538714	1004.240933780860	412.127465967949	399.418692492017	858.519054486251	387.866803165639	348.990662812970	834.239303639058	255.294526960158	390.450138994885	977.730916149670	381.342357788924	614.543839176239	890.740818181042	292.169109364269	680.118448049060	904.619605994273	193.711374789582	613.781119425005	739.555098256839	45.418138871263	593.190858392680	912.838377250093	96.487909680141	624.236320656712	824.338287868275	37.876762675222	665.190261739620	1032.397306756022	40.857775474634	650.533972830745	639.438319652904	207.961528186577	426.888395310339	689.352435350721	163.389790667375	341.018697329251	795.474649094222	156.926464549259	359.683775131577	858.677827866108	39.002721192848	318.076304864177	862.002313584360	1049.972799857259	279.160405792381	918.385930233760	794.852891302409	280.411778821825	980.151528445566	1074.826186252483	839.950670052571	1183.202206210459	911.513681032470	848.693366958908	
107	38.438571428571	723.490497135052	982.752240274815	572.025484275184	901.231065294614	1406.056041324836	375.564879636097	1008.269299479688	1340.654442075777	535.229534770776	932.360921938626	1416.761701821277	711.131056529849	884.995525796434	1472.670540150456	531.848035020871	960.106557041767	921.440402820841	679.788973906381	931.578328938194	942.180355118190	407.804167776594	1014.784631685627	725.479079130704	635.364464202213	946.484005338560	606.486383396131	691.205079001098	1022.084971313911	562.908576116275	603.173712404950	1027.587840102357	465.095003623961	605.488900768106	1017.483501689186	756.338431785440	439.203585699641	975.597251594570	630.721409053531	358.904741149727	1074.708569161201	566.377506299395	427.764500393691	1084.301832749890	474.896393822470	414.759351346200	1012.259601313150	413.506203024712	399.187474893292	866.714927982947	385.367289570460	350.339647863274	846.975665427155	252.019612450308	391.215624263392	977.259280540645	378.982909262579	612.589180601893	889.390831958877	291.096055836772	678.974842275400	901.169573938601	192.405463519329	612.803039629425	734.059572082186	45.476937139824	593.261278779756	907.379068067214	96.367513874446	624.017734688772	818.821221153964	37.906787814438	665.256147528421	1026.868572863436	40.686801813580	650.584309535291	654.259058755715	196.981704268282	429.534376356164	704.909260420580	156.257710610270	342.312703433929	811.140623547852	154.074772405061	359.973662391101	878.600976220338	39.901548301184	315.422352930372	849.889213607683	1048.836750227912	281.659529586295	893.737003830654	791.296636260119	285.774322867739	991.343488044067	1074.486453575728	840.816082478981	1205.838505649517	926.673862322226	845.551782813783	
108	38.457142857143	722.873766989165	980.958897316673	574.530124900504	898.313502679683	1404.619913546735	376.482988135237	1007.357243097163	1339.051299954192	534.706004857587	933.711152260226	1414.911113979298	711.734448211224	884.477311815209	1471.140581441813	532.796524886218	960.839234430141	919.716419295189	678.861787102374	928.792243223221	941.260281886673	407.338294015619	1014.939332301560	723.642855009923	633.352549998809	947.558489340300	604.520064370054	689.929782825598	1021.943298804541	561.064170779357	600.748777369412	1027.121882962504	462.966114668421	602.875527924651	1017.186458228306	757.902865714969	438.583182373524	977.368688560781	631.702384673079	358.502223867340	1077.873038167269	569.194991856508	426.932977375943	1089.501234072633	478.196010054035	413.719474959759	1019.451294798343	415.152510872118	398.264525064811	874.681372747211	381.810857811079	350.842107186798	860.734813301741	247.731910532880	391.175561541954	975.733373054180	377.022750771383	610.730326280754	887.282630557844	290.215251174246	677.920577312753	897.300270436695	191.331227704358	611.923909580761	728.539552244266	45.529498166599	593.347935654336	901.885498064082	96.254782553000	623.823167684246	813.291780185181	37.928833074378	665.336041326056	1021.323220072326	40.539548087122	650.622067183574	671.042774786016	183.355112322829	431.201724303857	722.653726514113	146.845425686983	342.779772112976	828.748845419634	149.938344859926	359.519773746030	901.347597701099	40.557742352609	312.343300218651	837.667110995445	1048.721300226305	283.786793694758	870.369269610119	789.681727433920	290.926951860451	1002.641734872112	1075.138074005685	841.306032695067	1227.444308182882	943.905478832657	841.715516697218	
109	38.475714285714	722.372206294436	980.071539789799	576.816022475490	895.447807208530	1403.974403405359	377.163672489489	1006.593838965401	1338.195809901730	533.807035478234	935.373460257659	1413.817299500100	711.972790052434	884.123233068488	1470.314010942819	533.514149872453	961.602757577926	918.571633477531	677.549516433789	926.019755771547	941.017250156477	406.533500990781	1014.405426367955	722.110376070356	631.179009175793	947.587229819524	603.144175575169	688.680105333353	1020.568657488366	559.526741630197	598.417241052597	1025.213814020189	461.330697982254	600.469987590546	1016.273904300986	759.684935821299	437.485875191051	977.963002894761	633.037145181941	357.621437655250	1079.651889909030	572.063111492465	425.444470797012	1093.225361071119	481.857044481112	412.084633939670	1025.708371396687	417.126975205355	396.765400312335	882.476017472407	377.383569746568	350.469644972913	875.426939549273	242.762116291102	390.367446038130	973.028209187724	375.562220129651	609.067449386336	884.301974594576	289.585780313703	677.018143338381	892.953065454426	190.548171619041	611.192650409575	722.988224197397	45.585910802683	593.452451306988	896.353893693210	96.158327657445	623.669211993208	807.744414160464	37.946985478875	665.429533084122	1015.755896254466	40.420782481962	650.649170367232	689.796216586847	167.763854818080	431.774670695514	742.580618435668	135.694440146218	342.392720816567	848.181915630112	144.871071455495	358.389763569503	926.574454309112	41.142138256200	309.094819934265	825.534385586426	1049.742850214988	285.585762936726	848.446287772464	789.901402947015	295.825064662712	1014.008275973240	1076.909269001670	841.391012210473	1247.795997661631	963.181094753741	837.210373011589	
110	38.494285714286	721.976177979865	980.197136440189	578.830054162353	892.731456790865	1404.191926324742	377.588826256579	1006.035486166580	1338.141981603746	532.532308252190	937.390206085169	1413.564065595013	711.814306070742	883.985823174923	1470.256784887368	533.985162759503	962.335075044323	918.063012789845	675.891302037870	923.286888798248	941.524404007225	405.420212779274	1013.120642413730	720.942452046121	628.929848519704	946.458670489065	602.427756419540	687.511880627202	1017.892247776281	558.356091910520	596.280213573536	1021.800626788844	460.251869455275	598.380572599945	1014.740031678468	761.699258861391	436.011817965333	977.370602227881	634.723225456227	356.330860817137	1079.985221006087	574.937938449846	423.427897402636	1095.398777372380	485.847557491257	410.009363030289	1030.927287230801	419.459554981908	394.834328513289	890.151560209084	372.300057376558	349.223832262379	890.897306435775	237.475778508577	388.877993277358	969.095178542042	374.667328374159	607.677714920837	880.390664869975	289.248727028366	676.312460205094	888.100220404236	190.095193474243	610.641315652229	717.402121298045	45.653745090433	593.573830371142	890.782596324162	96.083910362674	623.565562332022	802.175748538613	37.965271259899	665.534158406020	1010.163441849988	40.333244403163	650.667819010016	710.404557408416	150.976191741492	431.184348416765	764.594527813063	123.426539830416	341.178327805401	869.245035174910	139.285168906274	356.711092697101	953.859429161205	41.875423488067	306.007738121628	813.695051016120	1051.946518918673	287.089430167758	828.089740832156	791.797705299475	300.425508085711	1025.396611649289	1079.860929071404	841.044038015315	1266.695399812572	984.378255385664	832.074706327660	
111	38.512857142857	721.679130712297	981.351933115885	580.517143569412	890.259736587744	1405.267071464787	377.740796348894	1005.728400987377	1338.869311067653	530.893228921612	939.777652880894	1414.159755679686	711.237448456919	884.103461786620	1470.965199153931	534.190110732922	962.980682748870	918.190913668443	673.934542865130	920.630432040062	942.785007812588	404.027807430909	1011.066228515592	720.161530656529	626.680052210505	944.134412784457	602.386596785944	686.465027518604	1013.924304061787	557.577543978946	594.413589460463	1016.910012888193	459.751276946268	596.680961129295	1012.598943066018	763.901164291901	434.249902948499	975.605503290132	636.707544151304	354.695164110946	1078.845926224125	577.732742569257	421.009982400182	1095.979930536927	490.088326574745	407.652317026933	1035.017693083375	422.137606585582	392.625308801512	897.740805215231	366.782501405026	347.137569921982	906.926275789486	232.232711142400	386.830939655892	963.965445178609	374.361596014388	606.611310314345	875.550565903994	289.220385258408	675.828442597547	882.746878375977	189.984952614003	610.283708595131	711.781203245899	45.735817457532	593.708712545735	885.171497783850	96.033520709202	623.514711308856	796.584464615182	37.986295948105	665.646104420623	1004.544972704852	40.277684414824	650.680104437999	732.620498802136	133.783063175262	429.420082168302	788.487169668429	110.686470651251	339.216812660830	891.660443309547	133.600701094730	354.653956114317	982.705242093160	42.977579848611	303.445868303209	802.342171877640	1055.292286088306	288.315079661445	809.388565643293	795.157928341139	304.688976624781	1036.759292184861	1083.978351414346	840.243291930186	1283.984554344331	1007.275781500550	826.360198815982	
